<svg xmlns="http://www.w3.org/2000/svg" xmlns:xlink="http://www.w3.org/1999/xlink" width="34" height="34" viewBox="0 0 34 34">
  <defs>
    <clipPath id="clip-path">
      <rect id="Rectangle_2739" data-name="Rectangle 2739" width="34" height="34" fill="#fff"/>
    </clipPath>
  </defs>
  <g id="gallery_import" transform="translate(-85 -311)">
    <g id="Group_532" data-name="Group 532" transform="translate(85.231 311.231)">
      <g id="Group_531" data-name="Group 531" transform="translate(-0.231 -0.231)" clip-path="url(#clip-path)">
        <path id="Path_1457" data-name="Path 1457" d="M27.751,25.5V2.254A2.257,2.257,0,0,0,25.5,0H2.254A2.257,2.257,0,0,0,0,2.254V25.5a2.257,2.257,0,0,0,2.254,2.254H25.5A2.257,2.257,0,0,0,27.751,25.5M2.254,1.409H25.5a.846.846,0,0,1,.845.845V21.7H22.875L18.98,11.96c-.363-.928-.979-1.043-1.229-1.05a1.436,1.436,0,0,0-1.283.988L13.7,17.989l-2.119-2.54a1.742,1.742,0,0,0-1.572-.758,1.707,1.707,0,0,0-1.4.928L4.954,21.7H1.409V2.254a.846.846,0,0,1,.845-.845M21.357,21.7H6.6l3.245-5.413a.333.333,0,0,1,.273-.189.385.385,0,0,1,.34.2l2.88,3.457a.7.7,0,0,0,1.182-.159l3.194-7.02ZM1.409,25.5v-2.4H26.342v2.4a.846.846,0,0,1-.845.845H2.254a.846.846,0,0,1-.845-.845" transform="translate(0.187 0.187)" fill="#fff"/>
        <path id="Path_1458" data-name="Path 1458" d="M29.657,6.613l-1.55-.141a.7.7,0,0,0-.128,1.4l1.547.141a.847.847,0,0,1,.762.916l-1.83,20.062a.841.841,0,0,1-.92.761L5.937,27.79a.7.7,0,0,0-.127,1.4l21.6,1.965a1.992,1.992,0,0,0,.206.01,2.263,2.263,0,0,0,2.244-2.043l1.83-20.067a2.262,2.262,0,0,0-2.034-2.446" transform="translate(2.3 2.832)" fill="#fff"/>
        <path id="Path_1459" data-name="Path 1459" d="M6.328,9.358A3.029,3.029,0,1,0,3.3,6.329,3.032,3.032,0,0,0,6.328,9.358m0-4.649a1.62,1.62,0,1,1-1.62,1.62,1.622,1.622,0,0,1,1.62-1.62" transform="translate(1.536 1.536)" fill="#fff"/>
      </g>
    </g>
  </g>
</svg>
