<svg xmlns="http://www.w3.org/2000/svg" xmlns:xlink="http://www.w3.org/1999/xlink" width="32" height="32" viewBox="0 0 32 32">
  <defs>
    <clipPath id="clip-path">
      <rect id="Rectangle_2962" data-name="Rectangle 2962" width="32" height="32" fill="none"/>
    </clipPath>
  </defs>
  <g id="go" opacity="0.8">
    <g id="Group_2685" data-name="Group 2685" clip-path="url(#clip-path)">
      <path id="Path_8393" data-name="Path 8393" d="M16,0A16,16,0,1,0,32,16,16,16,0,0,0,16,0m8.052,16.384a.964.964,0,0,1-.176.265c-.016.018-.021.041-.039.058l-5.471,5.472a1,1,0,1,1-1.414-1.414L20.716,17H8.539a1,1,0,0,1,0-2H20.716l-3.764-3.765a1,1,0,1,1,1.414-1.414l5.471,5.472a.792.792,0,0,1,.047.071.948.948,0,0,1,.168.252,1,1,0,0,1,0,.768" fill="#fff"/>
    </g>
  </g>
</svg>
