<svg id="live_camera" xmlns="http://www.w3.org/2000/svg" xmlns:xlink="http://www.w3.org/1999/xlink" width="34" height="34" viewBox="0 0 34 34">
  <defs>
    <clipPath id="clip-path">
      <rect id="Rectangle_2955" data-name="Rectangle 2955" width="34" height="34" fill="#fff"/>
    </clipPath>
  </defs>
  <g id="Group_2676" data-name="Group 2676" clip-path="url(#clip-path)">
    <path id="Path_8378" data-name="Path 8378" d="M31.608,0H26.044a1,1,0,0,0,0,2h5.564A.392.392,0,0,1,32,2.391V7.957a1,1,0,0,0,2,0V2.39A2.4,2.4,0,0,0,31.608,0" fill="#fff"/>
    <path id="Path_8379" data-name="Path 8379" d="M1,8.957a1,1,0,0,0,1-1V2.391A.391.391,0,0,1,2.391,2H7.957a1,1,0,0,0,0-2H2.391A2.393,2.393,0,0,0,0,2.391V7.957a1,1,0,0,0,1,1" fill="#fff"/>
    <path id="Path_8380" data-name="Path 8380" d="M33,25.043a1,1,0,0,0-1,1v5.565a.393.393,0,0,1-.392.392H26.044a1,1,0,0,0,0,2h5.564A2.4,2.4,0,0,0,34,31.609V26.043a1,1,0,0,0-1-1" fill="#fff"/>
    <path id="Path_8381" data-name="Path 8381" d="M7.957,32H2.391A.391.391,0,0,1,2,31.609V26.043a1,1,0,0,0-2,0v5.566A2.393,2.393,0,0,0,2.391,34H7.957a1,1,0,0,0,0-2" fill="#fff"/>
    <path id="Path_8382" data-name="Path 8382" d="M17,6.4A10.6,10.6,0,1,0,27.6,17,10.612,10.612,0,0,0,17,6.4m0,19.2A8.6,8.6,0,1,1,25.6,17,8.609,8.609,0,0,1,17,25.6" fill="#fff"/>
    <path id="Path_8383" data-name="Path 8383" d="M17,10.319A6.681,6.681,0,1,0,23.682,17,6.689,6.689,0,0,0,17,10.319m0,11.363A4.681,4.681,0,1,1,21.682,17,4.688,4.688,0,0,1,17,21.682" fill="#fff"/>
    <path id="Path_8384" data-name="Path 8384" d="M17,14.08A2.923,2.923,0,0,0,14.08,17a1,1,0,0,0,2,0,.921.921,0,0,1,.92-.92,1,1,0,0,0,0-2" fill="#fff"/>
  </g>
</svg>
