<svg id="mrz_sample_images" xmlns="http://www.w3.org/2000/svg" xmlns:xlink="http://www.w3.org/1999/xlink" width="44.8" height="32" viewBox="0 0 44.8 32">
  <defs>
    <clipPath id="clip-path">
      <rect id="Rectangle_2935" data-name="Rectangle 2935" width="44.8" height="32" fill="#fff"/>
    </clipPath>
  </defs>
  <g id="Group_540" data-name="Group 540" clip-path="url(#clip-path)">
    <path id="Path_1476" data-name="Path 1476" d="M44.8,2.327A2.232,2.232,0,0,0,42.667,0H2.09A2.212,2.212,0,0,0,0,2.288V29.672A2.229,2.229,0,0,0,2.134,32L42.71,32A2.213,2.213,0,0,0,44.8,29.711Zm-2.13,28.109-40.491,0a.668.668,0,0,1-.615-.727V2.249a.655.655,0,0,1,.6-.686H42.624a.668.668,0,0,1,.615.726V29.749a.652.652,0,0,1-.573.687" fill="#fff"/>
    <path id="Path_1477" data-name="Path 1477" d="M6.074,17.39H18.183a.78.78,0,0,0,.755-.975,7.047,7.047,0,0,0-5.824-5.243,3.811,3.811,0,0,0-.986-7.491h0a3.811,3.811,0,0,0-.971,7.495,7.212,7.212,0,0,0-.762.148,7.037,7.037,0,0,0-5.074,5.091.78.78,0,0,0,.755.975m3.8-9.89a2.256,2.256,0,0,1,2.247-2.256h0a2.256,2.256,0,0,1,0,4.511h0A2.255,2.255,0,0,1,9.879,7.5m.9,5.339a5.468,5.468,0,0,1,6.3,2.987H7.176a5.481,5.481,0,0,1,3.6-2.987" fill="#fff"/>
    <path id="Path_1478" data-name="Path 1478" d="M22.836,15.028H38.358a.782.782,0,0,0,0-1.564H22.836a.782.782,0,0,0,0,1.564" fill="#fff"/>
    <path id="Path_1479" data-name="Path 1479" d="M22.836,8.622h8.538a.782.782,0,0,0,0-1.564H22.836a.782.782,0,0,0,0,1.564" fill="#fff"/>
    <path id="Path_1480" data-name="Path 1480" d="M22.836,11.721H38.358a.782.782,0,0,0,0-1.564H22.836a.782.782,0,0,0,0,1.564" fill="#fff"/>
    <path id="Path_1481" data-name="Path 1481" d="M36.676,22.11l2.025,1.6.724-.92-.85-.673.875-.678-.716-.928Z" fill="#fff"/>
    <path id="Path_1482" data-name="Path 1482" d="M36.811,22.792l-.85-.673.874-.678-.715-.928-2.058,1.6,2.026,1.6Z" fill="#fff"/>
    <path id="Path_1483" data-name="Path 1483" d="M34.2,22.792l-.85-.673.874-.678-.715-.928-2.058,1.6,2.025,1.6Z" fill="#fff"/>
    <path id="Path_1484" data-name="Path 1484" d="M31.584,22.792l-.85-.673.875-.678-.715-.928-2.059,1.6,2.026,1.6Z" fill="#fff"/>
    <path id="Path_1485" data-name="Path 1485" d="M28.971,22.792l-.85-.673.874-.678-.715-.928-2.058,1.6,2.025,1.6Z" fill="#fff"/>
    <path id="Path_1486" data-name="Path 1486" d="M26.381,21.441l-.715-.928-2.059,1.6,2.027,1.6.723-.92-.85-.673Z" fill="#fff"/>
    <path id="Path_1487" data-name="Path 1487" d="M20.406,23.713l.723-.921-.85-.672.874-.678-.715-.929-2.058,1.6Z" fill="#fff"/>
    <path id="Path_1488" data-name="Path 1488" d="M18.515,22.793l-.851-.673.875-.679-.715-.927-2.057,1.6,2.024,1.6Z" fill="#fff"/>
    <path id="Path_1489" data-name="Path 1489" d="M15.9,22.793l-.851-.673.875-.678-.715-.929-2.057,1.6,2.024,1.6Z" fill="#fff"/>
    <path id="Path_1490" data-name="Path 1490" d="M13.289,22.792l-.85-.673.874-.678-.715-.928-2.058,1.6,2.025,1.6Z" fill="#fff"/>
    <path id="Path_1491" data-name="Path 1491" d="M10.675,22.792l-.85-.673.874-.678-.715-.928-2.058,1.6,2.026,1.6Z" fill="#fff"/>
    <path id="Path_1492" data-name="Path 1492" d="M8.085,21.441l-.715-.927-2.058,1.6,2.024,1.6.725-.921L7.21,22.12Z" fill="#fff"/>
    <path id="Path_1493" data-name="Path 1493" d="M38.734,24.824l-2.059,1.6,2.025,1.6.724-.921-.85-.673.875-.678Z" fill="#fff"/>
    <path id="Path_1494" data-name="Path 1494" d="M36.835,25.753l-.715-.928-2.059,1.6,2.027,1.6.723-.92-.85-.673Z" fill="#fff"/>
    <path id="Path_1495" data-name="Path 1495" d="M34.223,25.753l-.715-.928-2.059,1.6,2.024,1.6.725-.92-.85-.673Z" fill="#fff"/>
    <path id="Path_1496" data-name="Path 1496" d="M31.609,25.753l-.715-.928-2.059,1.6,2.026,1.6.723-.92-.85-.673Z" fill="#fff"/>
    <path id="Path_1497" data-name="Path 1497" d="M29,25.753l-.715-.928-2.059,1.6,2.024,1.6.725-.92-.85-.673Z" fill="#fff"/>
    <path id="Path_1498" data-name="Path 1498" d="M26.381,25.753l-.715-.928-2.059,1.6,2.027,1.6.723-.92-.85-.673Z" fill="#fff"/>
    <path id="Path_1499" data-name="Path 1499" d="M21.154,25.753l-.715-.928-2.059,1.6,2.027,1.6.723-.92-.85-.673Z" fill="#fff"/>
    <path id="Path_1500" data-name="Path 1500" d="M18.54,25.753l-.715-.928-2.059,1.6,2.025,1.6.725-.92-.85-.673Z" fill="#fff"/>
    <path id="Path_1501" data-name="Path 1501" d="M15.926,25.753l-.715-.928-2.059,1.6,2.025,1.6L15.9,27.1l-.851-.673Z" fill="#fff"/>
    <path id="Path_1502" data-name="Path 1502" d="M13.313,25.753l-.715-.928-2.059,1.6,2.025,1.6.725-.92-.85-.673Z" fill="#fff"/>
    <path id="Path_1503" data-name="Path 1503" d="M10.7,25.753l-.715-.928-2.059,1.6,2.026,1.6.723-.92-.85-.673Z" fill="#fff"/>
    <path id="Path_1504" data-name="Path 1504" d="M8.085,25.753l-.715-.928-2.059,1.6,2.025,1.6.725-.92-.85-.673Z" fill="#fff"/>
    <path id="Path_1505" data-name="Path 1505" d="M22.99,23.713l.723-.921-.85-.672.874-.678-.715-.929-2.058,1.6Z" fill="#fff"/>
    <path id="Path_1506" data-name="Path 1506" d="M23.737,25.753l-.715-.928-2.059,1.6,2.027,1.6.723-.92-.85-.673Z" fill="#fff"/>
  </g>
</svg>
